<svg xmlns="http://www.w3.org/2000/svg" version="1.1" xmlns:xlink="http://www.w3.org/1999/xlink" xmlns:svgjs="http://svgjs.dev/svgjs" width="100%" height="100%" viewBox="0 0 1000 600"><rect width="1000" height="600" x="0" y="0" fill="#f4a950"/><g><rect width="333.3333333333333" height="333.3333333333333" y="255.7109873646746" fill="#161b21" transform="matrix(0.5353578877064176,0,0,0.5353578877064176,0,73.87683982272732)" x="233.4888458251953"/><path d="M458.89919147947114 497.3776577305622L341.41181887386193 497.3776577305622L341.41181887386193 493.7476072604802L359.5936368805333 484.6566982571445L359.5936368805333 360.09861864894094L341.41181887386193 351.00770964560525L341.41181887386193 347.37765917552326L452.5544945708931 347.37765917552326L452.5544945708931 386.4559416273621L448.9244441008112 386.4559416273621L434.81459575188387 359.8776590551098L380.04818213803867 359.8776590551098L380.04818213803867 413.7286686373692L418.68454540221535 413.7286686373692L430.04818165638494 394.88397184920456L433.6782321264669 394.88397184920456L433.6782321264669 444.6630117737198L430.04818165638494 444.6630117737198L418.68454540221535 426.22866851695574L380.04818213803867 426.22866851695574L380.04818213803867 484.87765785097565L441.1908583167235 484.87765785097565L455.26914100938916 456.02664802788945L458.89919147947114 456.02664802788945L458.89919147947114 497.3776577305622Z " fill="#f4a950" transform="matrix(0.5353578877064176,0,0,0.5353578877064176,0,73.87683982272732)"/><path d="M752.1840119744503 495.40397021783957L650.1555054785898 495.40397021783957L650.1555054785898 492.25155800746234L665.9449788105661 484.35682134147424L665.9449788105661 376.1879641054008L650.1555054785898 368.2932274394127L650.1555054785898 365.14081522903547L746.6741436763128 365.14081522903547L746.6741436763128 399.07721798074834L743.5217314659355 399.07721798074834L731.2684422655998 375.99607814476917L683.7081363090394 375.99607814476917L683.7081363090394 422.76142797871273L717.260767139489 422.76142797871273L727.129187971974 406.3962967648415L730.2816001823512 406.3962967648415L730.2816001823512 449.62546246714453L727.129187971974 449.62546246714453L717.260767139489 433.6166908944464L683.7081363090394 433.6166908944464L683.7081363090394 484.54870730210587L736.8057228438277 484.54870730210587L749.0315997640731 459.4938832996297L752.1840119744503 459.4938832996297L752.1840119744503 495.40397021783957ZM815.3419053023553 495.40397021783957L774.6894939285345 495.40397021783957L774.6894939285345 492.25155800746234L787.1346690895019 485.9193213066177L787.1346690895019 369.8831396846464L775.2925640905197 359.60353465080766L775.2925640905197 358.23292064629584L801.745414377598 347.3776577305622L802.9241424214782 347.3776577305622L802.9241424214782 485.9193213066177L815.3419053023553 492.25155800746234L815.3419053023553 495.40397021783957ZM875.1555004592514 497.3776543843366L875.1555004592514 497.3776543843366Q856.0217289562664 497.3776543843366 844.9471677998107 485.72743534598607Q833.9000189234454 474.0772163076355 833.9000189234454 454.9434448046504L833.9000189234454 454.9434448046504Q833.9000189234454 440.1408135559227 839.7388345826658 428.79212959856477Q845.5502379617959 417.44344564120684 855.1171237132886 411.02897210009144Q864.6840094647811 404.6144985589761 875.9504565818683 404.6144985589761L875.9504565818683 404.6144985589761Q891.5480439532129 404.6144985589761 900.5118595427203 415.4697614747098Q909.503087412318 426.32502439044345 909.503087412318 446.664936217399L909.503087412318 446.664936217399L908.5162453290694 447.6517783006475L849.49760629479 447.6517783006475Q849.6894922554217 456.7252430105158 853.0612027065209 464.7022165167746Q856.4055008775296 472.7066023031237 863.8068165018936 477.6408127193663Q871.2081321262573 482.57502313560883 883.6533072872247 482.57502313560883L883.6533072872247 482.57502313560883Q894.5085702029584 482.57502313560883 909.0919032109642 474.68028646962074L909.0919032109642 474.68028646962074L909.6949733729494 474.68028646962074L909.6949733729494 476.6539706361177Q905.1445348779702 485.1517774640911 896.1807192884629 491.2647159242139Q887.1894914188653 497.3776543843366 875.1555004592514 497.3776543843366ZM872.7980443714911 413.3041913475811L872.7980443714911 413.3041913475811Q863.3133954602694 413.3041913475811 857.2826938404172 419.9105508493281Q851.2794045006555 426.5169103510751 849.8813782160533 438.55090131068897L849.8813782160533 438.55090131068897L894.5085702029584 438.55090131068897Q892.3155877957396 425.1462963465633 886.8879563378727 419.2252438470722Q881.4603248800059 413.3041913475811 872.7980443714911 413.3041913475811ZM970.6872965737258 497.3776543843366L970.6872965737258 497.3776543843366Q951.5261127906505 497.3776543843366 940.4789639142851 485.72743534598607Q929.4318150379198 474.0772163076355 929.4318150379198 454.9434448046504L929.4318150379198 454.9434448046504Q929.4318150379198 440.1408135559227 935.462516657772 428.79212959856477Q941.4658059975337 417.44344564120684 951.7454110313723 411.02897210009144Q961.9976037851208 404.6144985589761 974.8265508673516 404.6144985589761L974.8265508673516 404.6144985589761Q982.7212875333397 404.6144985589761 990.2322522780645 407.27348972772904Q997.7158047426991 409.932480896482 1001.6631730756932 414.2910334308296L1001.6631730756932 414.2910334308296Q1004.8155852860704 418.04651580319205 1004.8155852860704 420.2120859303207L1004.8155852860704 420.2120859303207Q1004.8155852860704 422.9807262194346 1002.2662432376784 424.9544103859316L1002.2662432376784 424.9544103859316L994.7552784929534 431.25923480668604L993.3846644884417 431.25923480668604L986.6686558663338 422.18577009681775Q983.7081296165883 418.2384017638237 979.2673402419699 415.7712965557024Q974.8265508673516 413.3041913475811 968.3024282058753 413.3041913475811L968.3024282058753 413.3041913475811Q957.4471652901417 413.3041913475811 951.251989989748 421.88423501582514Q945.0294024092644 430.4642786840692 945.0294024092644 445.86998009478214L945.0294024092644 445.86998009478214Q945.0294024092644 455.32721672591373 948.1818146196416 463.7153744335261Q951.3342268300188 472.1035321411385 958.7355424543827 477.3392776383737Q966.1368580787465 482.57502313560883 979.157691121609 482.57502313560883L979.157691121609 482.57502313560883Q990.0129540373426 482.57502313560883 1004.6236993254387 474.68028646962074L1004.6236993254387 474.68028646962074L1005.2267694874239 474.68028646962074L1005.2267694874239 476.6539706361177Q1000.6763309924446 485.1517774640911 991.7125154029374 491.2647159242139Q982.7212875333397 497.3776543843366 970.6872965737258 497.3776543843366ZM1055.1445315317446 497.3776543843366L1055.1445315317446 497.3776543843366Q1046.4822510232298 497.3776543843366 1040.1500143223852 492.25155800746234Q1033.8451899016309 487.1254616305881 1033.8451899016309 477.832698679998L1033.8451899016309 477.832698679998L1033.8451899016309 415.8535333959731L1017.6445323683012 415.8535333959731L1017.6445323683012 414.6748053520929L1034.420847783526 406.58818272547313L1048.455935189727 384.8776568940058L1049.6346632336072 384.8776568940058L1049.6346632336072 406.58818272547313L1075.6763293193317 406.58818272547313L1075.6763293193317 415.8535333959731L1049.6346632336072 415.8535333959731L1049.6346632336072 474.48840050898906Q1049.6346632336072 479.61449688586333 1054.157689448496 481.9719529736236Q1058.7081279434756 484.35682134147424 1064.8210664035983 484.35682134147424L1064.8210664035983 484.35682134147424Q1068.5765487759604 484.35682134147424 1071.8386101066985 483.94563714012065Q1075.1006714374366 483.5618652188574 1077.4581275251971 482.9587950568722L1077.4581275251971 482.9587950568722L1078.0611976871824 482.9587950568722L1078.0611976871824 484.9324792233692Q1076.0875135206852 489.4829177183485 1070.2486978614652 493.43028605134253Q1064.437294482335 497.3776543843366 1055.1445315317446 497.3776543843366ZM1136.4767665594763 495.40397021783957L1094.234442940422 495.40397021783957L1094.234442940422 492.25155800746234L1106.6796181013892 485.9193213066177L1106.6796181013892 427.11998051306034L1094.8375131024072 416.8403754792216L1094.8375131024072 415.4697614747098L1119.289266942898 404.6144985589761L1120.4954072668684 404.6144985589761L1122.2497931926437 421.3908139742009L1123.0447493152606 421.3908139742009Q1127.5951878102396 414.099147470198 1131.4329070228728 410.4259019381063Q1135.2980385155965 406.7800686861048 1138.6423366866052 405.71098976258554Q1141.9866348576143 404.6144985589761 1145.358345308713 404.6144985589761L1145.358345308713 404.6144985589761Q1146.9208452738567 404.6144985589761 1149.0041785607145 405.2175687209613Q1151.0875118475724 405.7932266028563 1152.4581258520843 406.3962967648415L1152.4581258520843 406.3962967648415Q1154.6236959792132 407.38313884808997 1156.5151433054393 408.75375285260185Q1158.3791783515753 410.1517791372039 1158.3791783515753 411.906165062979L1158.3791783515753 411.906165062979Q1158.3791783515753 413.68796326884444 1157.5842222289584 415.4697614747098L1157.5842222289584 415.4697614747098L1153.6368538959646 425.1462963465633L1152.2662398914526 425.1462963465633L1144.7552751467279 422.18577009681775Q1142.589705019599 421.19892801356923 1140.5063717327412 421.00704205293755Q1138.4504507259735 420.7877438122157 1136.4767665594763 420.7877438122157L1136.4767665594763 420.7877438122157Q1128.1708456921347 420.7877438122157 1122.4690914333655 429.285550640189L1122.4690914333655 429.285550640189L1122.4690914333655 485.9193213066177L1136.4767665594763 492.25155800746234L1136.4767665594763 495.40397021783957ZM1215.6160191799895 497.3776543843366L1215.6160191799895 497.3776543843366Q1202.5951861371273 497.3776543843366 1192.8090021449125 491.2647159242139Q1183.0502304327883 485.1517774640911 1177.6225989749214 474.68028646962074Q1172.1949675170545 464.2087954751504 1172.1949675170545 450.99607647165635L1172.1949675170545 450.99607647165635Q1172.1949675170545 437.78335746816236 1177.6225989749214 427.31186647369196Q1183.0502304327883 416.8403754792216 1192.8090021449125 410.72743701909883Q1202.5951861371273 404.6144985589761 1215.6160191799895 404.6144985589761L1215.6160191799895 404.6144985589761Q1228.6368522228518 404.6144985589761 1238.423036215066 410.72743701909883Q1248.1818079271902 416.8403754792216 1253.6094393850572 427.31186647369196Q1259.037070842924 437.78335746816236 1259.037070842924 450.99607647165635L1259.037070842924 450.99607647165635Q1259.037070842924 464.2087954751504 1253.6094393850572 474.68028646962074Q1248.1818079271902 485.1517774640911 1238.423036215066 491.2647159242139Q1228.6368522228518 497.3776543843366 1215.6160191799895 497.3776543843366ZM1218.384659469103 488.8798475563633L1218.384659469103 488.8798475563633Q1226.2793961350912 488.8798475563633 1231.4054925119658 483.94563714012065Q1236.53158888884 479.0114267238781 1238.9164572566906 471.2263391782509Q1241.2739133444506 463.4412516326238 1241.2739133444506 454.9434448046504L1241.2739133444506 454.9434448046504Q1241.2739133444506 444.47195381018 1238.423036215066 434.8228312184168Q1235.5447468055913 425.1462963465633 1229.3221592251075 419.0333578864405Q1223.1269839247143 412.89300714622755 1213.258563092229 412.89300714622755L1213.258563092229 412.89300714622755Q1205.144528185519 412.89300714622755 1200.018431808645 417.82721756247014Q1194.8923354317708 422.76142797871273 1192.4252302236491 430.4642786840692Q1189.958125015528 438.16712938942567 1189.958125015528 446.8568221780306L1189.958125015528 446.8568221780306Q1189.958125015528 457.30090089241077 1192.9186512652736 466.97743576426427Q1195.879177515019 476.6539706361177 1202.1840019357733 482.7669090962405Q1208.5162386366183 488.8798475563633 1218.384659469103 488.8798475563633ZM1320.6050519255955 495.40397021783957L1278.3901405866313 495.40397021783957L1278.3901405866313 492.25155800746234L1290.8079034675084 485.9193213066177L1290.8079034675084 427.11998051306034L1278.9657984685264 416.8403754792216L1278.9657984685264 415.4697614747098L1303.4449645891073 404.6144985589761L1304.6236926329875 404.6144985589761L1306.405490838853 419.2252438470722L1307.3923329221016 419.2252438470722Q1314.9032976668263 411.7142791023474 1321.8934290898364 408.17809497070687Q1328.9109727929372 404.6144985589761 1337.3813673408204 404.6144985589761L1337.3813673408204 404.6144985589761Q1349.0315863791707 404.6144985589761 1356.4329020035348 410.4259019381063Q1363.8342176278984 416.26471759732664 1363.8342176278984 427.69563839495527L1363.8342176278984 427.69563839495527L1363.8342176278984 485.9193213066177L1376.279392788866 492.25155800746234L1376.279392788866 495.40397021783957L1334.0370691698113 495.40397021783957L1334.0370691698113 492.25155800746234L1348.044744295922 485.9193213066177L1348.044744295922 436.98840134554547Q1348.044744295922 428.2987085569405 1342.6171128380556 423.7482700619612Q1337.1894813801887 419.2252438470722 1328.4997885915836 419.2252438470722L1328.4997885915836 419.2252438470722Q1323.1818062540779 419.2252438470722 1316.7673327129623 421.00704205293755Q1310.3528591718473 422.76142797871273 1306.5973767994847 426.13313842981177L1306.5973767994847 426.13313842981177L1306.5973767994847 485.9193213066177L1320.6050519255955 492.25155800746234L1320.6050519255955 495.40397021783957ZM1414.1631638735726 380.7384026003801L1414.1631638735726 380.7384026003801Q1409.0370674966985 380.7384026003801 1405.6927693256898 377.28445530901024Q1402.3210588745906 373.83050801764045 1402.3210588745906 368.8962976013979L1402.3210588745906 368.8962976013979Q1402.3210588745906 363.77020122452365 1405.6927693256898 360.39849077342456Q1409.0370674966985 357.0541926024157 1414.1631638735726 357.0541926024157L1414.1631638735726 357.0541926024157Q1419.2892602504471 357.0541926024157 1422.6609707015464 360.39849077342456Q1426.005268872555 363.77020122452365 1426.005268872555 368.8962976013979L1426.005268872555 368.8962976013979Q1426.005268872555 373.83050801764045 1422.6609707015464 377.28445530901024Q1419.2892602504471 380.7384026003801 1414.1631638735726 380.7384026003801ZM1435.0787335824234 495.40397021783957L1394.4263222086024 495.40397021783957L1394.4263222086024 492.25155800746234L1406.87149736957 485.9193213066177L1406.87149736957 427.11998051306034L1395.0293923705876 416.8403754792216L1395.0293923705876 415.4697614747098L1421.4822426576661 404.6144985589761L1422.6609707015464 404.6144985589761L1422.6609707015464 485.9193213066177L1435.0787335824234 492.25155800746234L1435.0787335824234 495.40397021783957ZM1496.674126945185 497.3776543843366L1496.674126945185 497.3776543843366Q1477.5129431621094 497.3776543843366 1466.4657942857443 485.72743534598607Q1455.4186454093788 474.0772163076355 1455.4186454093788 454.9434448046504L1455.4186454093788 454.9434448046504Q1455.4186454093788 440.1408135559227 1461.449347029231 428.79212959856477Q1467.452636368993 417.44344564120684 1477.7322414028313 411.02897210009144Q1487.98443415658 404.6144985589761 1500.8133812388105 404.6144985589761L1500.8133812388105 404.6144985589761Q1508.7081179047987 404.6144985589761 1516.2190826495234 407.27348972772904Q1523.702635114158 409.932480896482 1527.6500034471524 414.2910334308296L1527.6500034471524 414.2910334308296Q1530.8024156575293 418.04651580319205 1530.8024156575293 420.2120859303207L1530.8024156575293 420.2120859303207Q1530.8024156575293 422.9807262194346 1528.2530736091371 424.9544103859316L1528.2530736091371 424.9544103859316L1520.7421088644123 431.25923480668604L1519.3714948599008 431.25923480668604L1512.655486237793 422.18577009681775Q1509.6949599880472 418.2384017638237 1505.2541706134289 415.7712965557024Q1500.8133812388105 413.3041913475811 1494.2892585773343 413.3041913475811L1494.2892585773343 413.3041913475811Q1483.4339956616004 413.3041913475811 1477.2388203612072 421.88423501582514Q1471.0162327807234 430.4642786840692 1471.0162327807234 445.86998009478214L1471.0162327807234 445.86998009478214Q1471.0162327807234 455.32721672591373 1474.1686449911003 463.7153744335261Q1477.3210572014777 472.1035321411385 1484.7223728258418 477.3392776383737Q1492.1236884502055 482.57502313560883 1505.1445214930677 482.57502313560883L1505.1445214930677 482.57502313560883Q1515.9997844088016 482.57502313560883 1530.6105296968976 474.68028646962074L1530.6105296968976 474.68028646962074L1531.2135998588828 474.68028646962074L1531.2135998588828 476.6539706361177Q1526.6631613639038 485.1517774640911 1517.6993457743965 491.2647159242139Q1508.7081179047987 497.3776543843366 1496.674126945185 497.3776543843366ZM1570.8791691494553 497.3776543843366L1570.8791691494553 497.3776543843366Q1561.6138184789552 497.3776543843366 1555.4734677387423 491.9500229264697Q1549.3605292786197 486.5223914686029 1549.3605292786197 476.8458565967494L1549.3605292786197 476.8458565967494Q1549.3605292786197 467.1693217248959 1556.5699589423516 460.06954118152464Q1563.779388606084 452.9697606381534 1580.7475899819406 449.0223923051593L1580.7475899819406 449.0223923051593L1599.4975895636621 444.69125205090194L1599.4975895636621 430.2723927234375Q1599.4975895636621 423.55638410132957 1594.0699581057952 418.7318228054479Q1588.6423266479287 413.87984922947606 1581.7344320651887 413.87984922947606L1581.7344320651887 413.87984922947606Q1574.223467320464 413.87984922947606 1571.2629410707186 417.93686668283107Q1568.302414820973 421.99388413618607 1568.302414820973 428.6824804782038L1568.302414820973 428.6824804782038L1568.302414820973 434.2197610564316L1567.3155727377243 435.2066031396801L1557.0633799839761 435.2066031396801Q1554.1028537342304 435.2066031396801 1553.0063625306211 434.2197610564316Q1551.9372836071016 433.2329189731831 1551.9372836071016 429.6693225614523L1551.9372836071016 429.6693225614523Q1551.9372836071016 425.3381823071949 1554.4866256554938 420.7877438122157Q1557.0633799839761 416.26471759732664 1562.381362321482 412.89300714622755L1562.381362321482 412.89300714622755Q1567.9186428997095 409.356823014587 1573.9493445195617 406.97195464673644Q1579.9526338593237 404.6144985589761 1586.8605284420632 404.6144985589761L1586.8605284420632 404.6144985589761Q1593.7684230248028 404.6144985589761 1600.3747825265496 406.58818272547313Q1607.008554308387 408.56186689197017 1611.147808602013 413.19454222722015Q1615.2870628956384 417.82721756247014 1615.2870628956384 426.13313842981177L1615.2870628956384 426.13313842981177L1615.2870628956384 482.1912512143456Q1616.6576769001504 483.5618652188574 1619.2344312286323 484.54870730210587Q1621.8111855571146 485.53554938535444 1626.334211772004 485.53554938535444L1626.334211772004 485.53554938535444L1633.8451765167283 485.53554938535444L1634.4208343986234 485.9193213066177L1634.4208343986234 486.5223914686029Q1632.0633783108633 490.85353172286034 1627.4307029756133 494.11559305359845Q1622.7980276403632 497.3776543843366 1616.0820190182553 497.3776543843366L1616.0820190182553 497.3776543843366Q1609.9690805581326 497.3776543843366 1606.1039490654093 494.11559305359845Q1602.2662298527762 490.85353172286034 1600.6763176075424 485.53554938535444L1600.6763176075424 485.53554938535444L1599.4975895636621 485.53554938535444Q1594.371493186788 490.66164576222866 1586.7782916017923 494.0333562133277Q1579.1576777367068 497.3776543843366 1570.8791691494553 497.3776543843366ZM1564.7662306893326 472.8984882637553L1564.7662306893326 472.8984882637553Q1564.7662306893326 485.1517774640911 1579.5688619380603 485.1517774640911L1579.5688619380603 485.1517774640911Q1584.311186393671 485.1517774640911 1588.943861728921 484.16493538084256Q1593.5765370641711 483.17809329759405 1599.4975895636621 480.6013389691118L1599.4975895636621 480.6013389691118L1599.4975895636621 451.37984839291965Q1583.7081162316858 454.3403746426652 1576.416449727683 457.6024359734034Q1569.0973709435898 460.86449730414154 1566.931800816461 464.61997967650393Q1564.7662306893326 468.3754620488663 1564.7662306893326 472.8984882637553Z " fill="#161b21" transform="matrix(0.5353578877064176,0,0,0.5353578877064176,0,73.87683982272732)"/></g></svg>